<svg fill="none" height="33" viewBox="0 0 50 33" width="50" xmlns="http://www.w3.org/2000/svg" xmlns:xlink="http://www.w3.org/1999/xlink"><clipPath id="a"><path d="m.445312.507812h49.0083v32.1846h-49.0083z"/></clipPath><g clip-path="url(#a)"><rect fill="#fff" height="29.7463" rx="14.8732" stroke="#fff" stroke-width="2.43822" width="46.5701" x="1.6637" y="1.7262"/><path d="m30.9049 5.85938h-11.944v21.46112h11.944z" fill="#ff5f00"/><path d="m19.7196 16.5909c0-4.1709 1.9338-8.15224 5.1947-10.73061-5.9151-4.66383-14.5223-3.64006-19.18615 2.31295-4.6259 5.91506-3.60213 14.48436 2.35088 19.14826 4.96717 3.9054 11.90597 3.9054 16.87317 0-3.2988-2.5784-5.2326-6.5597-5.2326-10.7306z" fill="#eb001b"/><path d="m47.021 16.5909c0 7.5455-6.1047 13.6502-13.6502 13.6502-3.0713 0-6.0289-1.0238-8.4177-2.9196 5.9151-4.6639 6.9389-13.2332 2.2751-19.18618-.6826-.83418-1.4409-1.63044-2.2751-2.27503 5.9151-4.66383 14.5223-3.64006 19.1482 2.31295 1.8959 2.38876 2.9197 5.34636 2.9197 8.41766z" fill="#f79e1b"/></g></svg>