<svg fill="none" height="94" viewBox="0 0 97 94" width="97" xmlns="http://www.w3.org/2000/svg"><g fill="#ff5c16"><path d="m90.504 89.9099-20.8031-6.1814-15.6884 9.3585-10.9457-.0046-15.6975-9.3539-20.79404 6.1814-6.32526-21.3076 6.32526-23.6484-6.32526-19.9941 6.32526-24.780112 32.49234 19.371412h18.9441l32.4923-19.371412 6.3253 24.780112-6.3253 19.9941 6.3253 23.6484z"/><path d="m6.57812.179688 32.49238 19.385012-1.2923 13.3037z"/><path d="m27.375 68.6094 14.2965 10.8674-14.2965 4.2497z"/><path d="m40.5248 50.642-2.7477-17.767-17.5883 12.081-.0091-.0046v.0091l.0544 12.4355 7.1324-6.754h.0045z"/><path d="m90.5002.179688-32.4924 19.385012 1.2877 13.3037z"/><path d="m69.7105 68.6094-14.2964 10.8674 14.2964 4.2497z"/><path d="m76.8953 44.9605h.0045-.0045v-.0091l-.0046.0046-17.5883-12.081-2.7477 17.767h13.1538l7.1369 6.754z"/></g><path d="m27.3693 83.7265-20.79404 6.1814-6.32526-21.2985h27.1193z" fill="#e34807"/><path d="m40.5218 50.6406 3.972 25.6846-5.5046-14.2808-18.7626-4.6451 7.1369-6.7587h13.1538z" fill="#e34807"/><path d="m69.7109 83.7265 20.7941 6.1814 6.3252-21.2985h-27.1193z" fill="#e34807"/><path d="m56.5579 50.6406-3.972 25.6846 5.5046-14.2808 18.7627-4.6451-7.1414-6.7587z" fill="#e34807"/><path d="m.25 68.6015 6.32526-23.6484h13.60274l.0499 12.4401 18.7626 4.6451 5.5046 14.2809-2.8294 3.1452-14.2964-10.8674h-27.1193z" fill="#ff8d5d"/><path d="m96.831 68.6015-6.3252-23.6484h-13.6027l-.0499 12.4401-18.7627 4.6451-5.5046 14.2809 2.8294 3.1452 14.2965-10.8674h27.1192z" fill="#ff8d5d"/><path d="m58.013 19.5469h-9.472-9.472l-1.2878 13.3036 6.7153 43.4516h8.089l6.7198-43.4516z" fill="#ff8d5d"/><g fill="#661800"><path d="m6.57526.179688-6.32526 24.780112 6.32526 19.9941h13.60274l17.5974-12.0855z"/><path d="m36.5955 55.8014h-6.162l-3.3554 3.2816 11.9205 2.9498-2.4031-6.2359z"/><path d="m90.5048.179688 6.3252 24.780112-6.3252 19.9941h-13.6027l-17.5974-12.0855z"/><path d="m60.4936 55.8014h6.1711l3.3553 3.2862-11.9341 2.9543 2.4077-6.245z"/><path d="m54.0108 84.6094 1.4056-5.136-2.8294-3.1453h-8.0936l-2.8293 3.1453 1.4056 5.136"/></g><path d="m54.0036 84.6094v8.4812h-10.9411v-8.4812z" fill="#c0c4cd"/><path d="m27.375 83.7185 15.7021 9.3675v-8.4812l-1.4056-5.136z" fill="#e7ebf6"/><path d="m69.7099 83.7185-15.7021 9.3675v-8.4812l1.4056-5.136z" fill="#e7ebf6"/></svg>